<svg width="161" height="65" viewBox="0 0 161 65" fill="none" xmlns="http://www.w3.org/2000/svg">
<path d="M158.547 39.0892H156.938H153.385L151.999 32.9194L154.295 31.0373C153.413 28.9245 152.601 27.5353 152.601 27.5353L133.265 22.3121L111.767 5.33902C110.694 5.33902 106.216 5.33902 100.61 5.33902L97.5874 0.703659H85.2736L82.2509 5.33902C76.0544 5.33902 71.3609 5.33902 71.3609 5.33902L42.0559 20.9921L6.10705 28.5058C6.10705 28.5058 4.69805 32.5152 4.21072 34.8445H18.1182L14.6366 39.0514H4.04689C4.04689 39.0636 4.04689 39.0771 4.04689 39.0892H1.06783L0 43.87L5.88815 52.2728L21.3667 52.2693C22.6985 59.1127 28.7352 64.296 35.9627 64.296C43.1923 64.296 49.2305 59.1092 50.5591 52.2627L106.956 52.2499C108.28 59.103 114.321 64.296 121.555 64.296C128.792 64.296 134.834 59.0995 136.155 52.243L156.46 52.2381L160.999 43.87L158.547 39.0892ZM35.9627 57.1835C31.6841 57.1835 28.2035 53.7025 28.2035 49.4243C28.2035 45.146 31.6845 41.6651 35.9627 41.6651C40.2413 41.6651 43.7216 45.146 43.7216 49.4243C43.7216 53.7025 40.2413 57.1835 35.9627 57.1835ZM55.5969 33.2838H53.0553V30.7422H50.5144V33.2838H47.9728V30.7422H45.4319V33.2838H42.8903V30.7422H40.3494V33.2838H37.8078V30.7422H40.3494V28.2013H42.8903V30.7422H45.4319V28.2013H47.9728V30.7422H50.5144V28.2013H53.0553V30.7422H55.5969V33.2838ZM76.9875 10.5989H106.484L120.071 21.5093H55.7362L76.9875 10.5989ZM68.5727 42.3419H65.6567V31.8537H62.4168V29.5611H71.8295V31.8537H68.5727V42.3419ZM79.3729 42.3419L78.6882 39.5886H75.2519L74.5838 42.3419H71.453L74.9617 29.5265H78.976L82.4874 42.3419H79.3729ZM94.0781 42.3419H90.8386L88.5713 37.5735L86.3026 42.3419H83.0797L86.4997 35.6384L83.0797 29.5608H86.465L88.5709 33.8037L90.6952 29.5608H94.0777L90.6591 35.6384L94.0781 42.3419ZM98.4339 42.3419H95.5179V29.5611H98.4339V42.3419ZM113.027 33.2838H110.486V30.7422H107.945V33.2838H105.403V30.7422H107.945V28.2013H110.486V30.7422H113.027V28.2013H115.568V30.7422H118.11V28.2013H120.651V30.7422H123.192V33.2838H120.651V30.7422H118.11V33.2838H115.568V30.7422H113.027V33.2838ZM121.556 57.1835C117.277 57.1835 113.796 53.7025 113.796 49.4243C113.796 45.146 117.277 41.6651 121.556 41.6651C125.834 41.6651 129.315 45.146 129.315 49.4243C129.315 53.7025 125.834 57.1835 121.556 57.1835Z" fill="#F2F2F2"/>
</svg>
